<svg width="33" height="33" viewBox="0 0 33 33" fill="none" xmlns="http://www.w3.org/2000/svg">
<path d="M30.7857 2.46604C30.7739 2.40903 30.7461 2.35656 30.7056 2.31478C30.6651 2.273 30.6135 2.24364 30.5569 2.23014C26.7818 1.30717 18.0594 4.59621 13.3337 9.31998C12.4908 10.156 11.7224 11.064 11.0372 12.0335C9.57994 11.9046 8.12265 12.0122 6.88064 12.5536C3.37632 14.096 2.35603 18.1204 2.07179 19.8516C2.05567 19.9464 2.06175 20.0436 2.08956 20.1356C2.11736 20.2276 2.16614 20.3119 2.23204 20.3819C2.29795 20.4518 2.37919 20.5056 2.46937 20.5388C2.55955 20.5721 2.65622 20.5839 2.75177 20.5735L8.37917 19.9528C8.38318 20.3771 8.40878 20.8009 8.45587 21.2225C8.48419 21.5154 8.61418 21.789 8.82326 21.996L11.0024 24.17C11.2096 24.3787 11.4831 24.5087 11.7759 24.5374C12.1952 24.5842 12.6166 24.6098 13.0385 24.6141L12.421 30.2344C12.4107 30.3299 12.4227 30.4265 12.456 30.5166C12.4893 30.6067 12.543 30.6879 12.613 30.7538C12.6829 30.8197 12.7671 30.8685 12.8591 30.8963C12.951 30.9242 13.0482 30.9303 13.1429 30.9144C14.8709 30.6372 18.9024 29.6169 20.4358 26.1126C20.9772 24.8706 21.088 23.4204 20.963 21.9702C21.9348 21.2849 22.8451 20.5163 23.6836 19.6731C28.4241 14.9564 31.6944 6.42861 30.7857 2.46604ZM18.954 14.0463C18.5211 13.6137 18.2263 13.0625 18.1067 12.4623C17.9872 11.8621 18.0483 11.24 18.2824 10.6745C18.5165 10.1091 18.9131 9.62582 19.4219 9.28578C19.9307 8.94575 20.5289 8.76425 21.1409 8.76425C21.7529 8.76425 22.3511 8.94575 22.8599 9.28578C23.3687 9.62582 23.7652 10.1091 23.9993 10.6745C24.2334 11.24 24.2946 11.8621 24.175 12.4623C24.0555 13.0625 23.7607 13.6137 23.3278 14.0463C23.0407 14.3338 22.6999 14.5618 22.3246 14.7174C21.9494 14.873 21.5471 14.9531 21.1409 14.9531C20.7347 14.9531 20.3324 14.873 19.9572 14.7174C19.5819 14.5618 19.241 14.3338 18.954 14.0463Z" fill="#F3F0EB"/>
<path d="M10.8539 25.7445C10.5007 26.0984 9.93416 26.2363 9.25225 26.3542C7.7202 26.6153 6.36732 25.2914 6.64254 23.7426C6.7476 23.1554 7.05826 22.3324 7.25162 22.139C7.29389 22.0976 7.32202 22.0438 7.33202 21.9855C7.34202 21.9272 7.33339 21.8671 7.30734 21.814C7.2813 21.7608 7.23917 21.7172 7.18694 21.6894C7.1347 21.6615 7.07502 21.6508 7.01637 21.6588C6.15963 21.7637 5.36259 22.1521 4.75213 22.7623C3.23684 24.2789 3.09375 29.9063 3.09375 29.9063C3.09375 29.9063 8.72437 29.7632 10.2397 28.2466C10.8517 27.6366 11.2406 26.8383 11.3438 25.9804C11.3676 25.711 11.0395 25.5505 10.8539 25.7445Z" fill="#F3F0EB"/>
</svg>
