<svg width="28" height="28" viewBox="0 0 28 28" fill="none" xmlns="http://www.w3.org/2000/svg">
<path d="M26.1208 2.09191C26.1108 2.04354 26.0872 1.99902 26.0528 1.96357C26.0184 1.92812 25.9747 1.90321 25.9266 1.89175C22.7236 1.10862 15.3227 3.89933 11.313 7.90737C10.5979 8.61676 9.94588 9.38712 9.3645 10.2097C8.12802 10.1003 6.89153 10.1917 5.8377 10.651C2.86434 11.9597 1.99864 15.3744 1.75747 16.8433C1.74379 16.9237 1.74895 17.0062 1.77254 17.0843C1.79614 17.1623 1.83752 17.2339 1.89344 17.2932C1.94936 17.3526 2.01829 17.3982 2.09481 17.4264C2.17133 17.4546 2.25335 17.4647 2.33442 17.4558L7.10919 16.9292C7.11259 17.2892 7.13431 17.6487 7.17427 18.0065C7.19829 18.255 7.30859 18.4872 7.48599 18.6628L9.33497 20.5074C9.51076 20.6845 9.74285 20.7948 9.99122 20.8191C10.347 20.8588 10.7046 20.8806 11.0625 20.8842L10.5386 25.6529C10.5299 25.734 10.5401 25.8159 10.5683 25.8924C10.5966 25.9689 10.6421 26.0377 10.7015 26.0936C10.7608 26.1495 10.8323 26.1909 10.9103 26.2146C10.9883 26.2382 11.0708 26.2434 11.1511 26.2299C12.6173 25.9947 16.038 25.129 17.339 22.1557C17.7984 21.1018 17.8925 19.8714 17.7864 18.6409C18.611 18.0595 19.3833 17.4073 20.0947 16.6918C24.117 12.6898 26.8918 5.45409 26.1208 2.09191ZM16.0818 11.9176C15.7145 11.5506 15.4643 11.0828 15.3629 10.5736C15.2615 10.0643 15.3133 9.53645 15.512 9.0567C15.7106 8.57694 16.047 8.16687 16.4788 7.87836C16.9105 7.58984 17.4181 7.43585 17.9373 7.43585C18.4566 7.43585 18.9641 7.58984 19.3959 7.87836C19.8276 8.16687 20.164 8.57694 20.3627 9.0567C20.5613 9.53645 20.6132 10.0643 20.5117 10.5736C20.4103 11.0828 20.1601 11.5506 19.7929 11.9176C19.5493 12.1615 19.2601 12.355 18.9417 12.487C18.6233 12.619 18.282 12.687 17.9373 12.687C17.5926 12.687 17.2513 12.619 16.933 12.487C16.6146 12.355 16.3253 12.1615 16.0818 11.9176Z" fill="url(#paint0_linear_1993_7707)"/>
<path d="M9.20937 21.8438C8.90969 22.1441 8.42898 22.2611 7.85039 22.3612C6.55047 22.5827 5.40258 21.4594 5.63609 20.1452C5.72523 19.647 5.98883 18.9487 6.15289 18.7846C6.18875 18.7494 6.21262 18.7039 6.22111 18.6544C6.22959 18.6049 6.22227 18.5539 6.20017 18.5088C6.17807 18.4637 6.14233 18.4267 6.09801 18.4031C6.05369 18.3795 6.00305 18.3704 5.95328 18.3772C5.22635 18.4661 4.55007 18.7957 4.03211 19.3134C2.74641 20.6002 2.625 25.375 2.625 25.375C2.625 25.375 7.4025 25.2536 8.6882 23.9668C9.20751 23.4492 9.5375 22.7719 9.625 22.044C9.64523 21.8154 9.36687 21.6792 9.20937 21.8438Z" fill="url(#paint1_linear_1993_7707)"/>
<defs>
<linearGradient id="paint0_linear_1993_7707" x1="22.2543" y1="-39.7851" x2="-10.3862" y2="-36.0102" gradientUnits="userSpaceOnUse">
<stop stop-color="#DAFF02"/>
<stop offset="1" stop-color="#839901"/>
</linearGradient>
<linearGradient id="paint1_linear_1993_7707" x1="8.48433" y1="6.49412" x2="-0.843234" y2="7.57202" gradientUnits="userSpaceOnUse">
<stop stop-color="#DAFF02"/>
<stop offset="1" stop-color="#839901"/>
</linearGradient>
</defs>
</svg>
