<svg width="16" height="16" viewBox="0 0 16 16" fill="none" xmlns="http://www.w3.org/2000/svg">
<g clip-path="url(#clip0_1927_10389)">
<path fill-rule="evenodd" clip-rule="evenodd" d="M7.14283 0H3.99997C3.87072 7.615e-05 3.74532 0.0439654 3.64423 0.124502C3.54315 0.205039 3.47235 0.317466 3.4434 0.443429L0.0148257 15.3006C-0.00441387 15.3843 -0.00453576 15.4712 0.0144691 15.555C0.0334739 15.6388 0.0711166 15.7172 0.124598 15.7844C0.178079 15.8516 0.246023 15.9059 0.323377 15.9432C0.400732 15.9805 0.485506 16 0.571397 16H7.14283V13.5383C7.14283 13.311 7.23313 13.0929 7.39388 12.9322C7.55462 12.7714 7.77264 12.6811 7.99997 12.6811C8.2273 12.6811 8.44532 12.7714 8.60606 12.9322C8.76681 13.0929 8.85711 13.311 8.85711 13.5383V16H15.4285C15.5144 16 15.5992 15.9805 15.6766 15.9432C15.7539 15.9059 15.8219 15.8516 15.8753 15.7844C15.9288 15.7172 15.9665 15.6388 15.9855 15.555C16.0045 15.4712 16.0044 15.3843 15.9851 15.3006L12.5565 0.443429C12.5276 0.317466 12.4568 0.205039 12.3557 0.124502C12.2546 0.0439654 12.1292 7.615e-05 12 0L8.85711 0V2.46171C8.85711 2.68904 8.76681 2.90706 8.60606 3.06781C8.44532 3.22855 8.2273 3.31886 7.99997 3.31886C7.77264 3.31886 7.55462 3.22855 7.39388 3.06781C7.23313 2.90706 7.14283 2.68904 7.14283 2.46171V0ZM7.99997 5.912C8.2273 5.912 8.44532 6.00231 8.60606 6.16305C8.76681 6.3238 8.85711 6.54181 8.85711 6.76914V9.23086C8.85711 9.45819 8.76681 9.6762 8.60606 9.83695C8.44532 9.99769 8.2273 10.088 7.99997 10.088C7.77264 10.088 7.55462 9.99769 7.39388 9.83695C7.23313 9.6762 7.14283 9.45819 7.14283 9.23086V6.76914C7.14283 6.54181 7.23313 6.3238 7.39388 6.16305C7.55462 6.00231 7.77264 5.912 7.99997 5.912Z" fill="white"/>
</g>
<defs>
<clipPath id="clip0_1927_10389">
<rect width="16" height="16" fill="white"/>
</clipPath>
</defs>
</svg>
